<svg width="880" height="240" viewBox="0 0 880 240" xmlns="http://www.w3.org/2000/svg" role="img" aria-label="Saksham Gupta — AI developer">
  <defs>
    <filter id="glow" x="-40%" y="-40%" width="180%" height="180%">
      <feGaussianBlur stdDeviation="3.5" result="b"/>
      <feMerge><feMergeNode in="b"/><feMergeNode in="SourceGraphic"/></feMerge>
    </filter>
    <linearGradient id="hairline" x1="0" y1="0" x2="1" y2="0">
      <stop offset="0" stop-color="#f0a63c" stop-opacity="0"/>
      <stop offset=".5" stop-color="#f0a63c" stop-opacity=".9"/>
      <stop offset="1" stop-color="#f0a63c" stop-opacity="0"/>
    </linearGradient>
    <clipPath id="type1"><rect x="36" y="52" width="0" height="20">
      <animate attributeName="width" values="0;0;240" keyTimes="0;0.2;1" dur="1.4s" fill="freeze"/>
    </rect></clipPath>
    <clipPath id="type2"><rect x="34" y="82" width="0" height="56">
      <animate attributeName="width" calcMode="discrete"
        values="0;44;88;132;176;196;240;284;328;372;416;460;480"
        begin="1.5s" dur="1.1s" fill="freeze"/>
    </rect></clipPath>
    <clipPath id="type3"><rect x="36" y="148" width="0" height="22">
      <animate attributeName="width" begin="2.8s" dur="1.2s" values="0;520" fill="freeze"/>
    </rect></clipPath>
    <clipPath id="type4"><rect x="36" y="182" width="0" height="20">
      <animate attributeName="width" begin="4.2s" dur="1s" values="0;330" fill="freeze"/>
    </rect></clipPath>
  </defs>

  <!-- panel -->
  <rect x="1" y="1" width="878" height="238" rx="14" fill="#0a0f1e" stroke="#f0a63c" stroke-opacity=".28"/>
  <rect x="9" y="9" width="862" height="222" rx="9" fill="none" stroke="#f0a63c" stroke-opacity=".10"/>

  <!-- starfield -->
  <g fill="#cfe0ff">
    <circle cx="618" cy="38" r="1.1"><animate attributeName="opacity" values=".2;1;.2" dur="3.1s" repeatCount="indefinite"/></circle>
    <circle cx="672" cy="92" r=".9"><animate attributeName="opacity" values=".9;.15;.9" dur="4.3s" repeatCount="indefinite"/></circle>
    <circle cx="590" cy="150" r="1"><animate attributeName="opacity" values=".3;.95;.3" dur="2.7s" repeatCount="indefinite"/></circle>
    <circle cx="705" cy="185" r=".8"><animate attributeName="opacity" values=".8;.2;.8" dur="3.7s" repeatCount="indefinite"/></circle>
    <circle cx="643" cy="210 " r="1"><animate attributeName="opacity" values=".25;.9;.25" dur="4.9s" repeatCount="indefinite"/></circle>
    <circle cx="560" cy="70" r=".7"><animate attributeName="opacity" values=".7;.1;.7" dur="5.3s" repeatCount="indefinite"/></circle>
    <circle cx="845" cy="40" r=".9"><animate attributeName="opacity" values=".2;.85;.2" dur="3.9s" repeatCount="indefinite"/></circle>
    <circle cx="835" cy="205" r=".8"><animate attributeName="opacity" values=".85;.2;.85" dur="4.6s" repeatCount="indefinite"/></circle>
  </g>

  <!-- sidereal dial -->
  <g transform="translate(762,120)">
    <circle r="74" fill="none" stroke="#f0a63c" stroke-opacity=".22"/>
    <circle r="58" fill="none" stroke="#f0a63c" stroke-opacity=".12"/>
    <g stroke="#f0a63c" stroke-opacity=".45">
      <line x1="0" y1="-74" x2="0" y2="-67"/><line x1="0" y1="74" x2="0" y2="67"/>
      <line x1="-74" y1="0" x2="-67" y2="0"/><line x1="74" y1="0" x2="67" y2="0"/>
      <line x1="52.3" y1="-52.3" x2="47.4" y2="-47.4"/><line x1="-52.3" y1="52.3" x2="-47.4" y2="47.4"/>
      <line x1="52.3" y1="52.3" x2="47.4" y2="47.4"/><line x1="-52.3" y1="-52.3" x2="-47.4" y2="-47.4"/>
    </g>
    <g>
      <line x1="0" y1="6" x2="0" y2="-58" stroke="#f0a63c" stroke-opacity=".85" stroke-width="1.5"/>
      <circle cy="-58" r="2.6" fill="#f0a63c" filter="url(#glow)"/>
      <animateTransform attributeName="transform" type="rotate" from="0" to="360" dur="36s" repeatCount="indefinite"/>
    </g>
    <circle r="3" fill="#f0a63c"/>
    <text y="92" text-anchor="middle" font-family="ui-monospace,Consolas,Menlo,monospace" font-size="9" letter-spacing="3" fill="#f0a63c" fill-opacity=".55">SIDEREAL·TRACK</text>
  </g>

  <!-- panel chrome -->
  <text x="36" y="32" font-family="ui-monospace,Consolas,Menlo,monospace" font-size="10" letter-spacing="3" fill="#f0a63c" fill-opacity=".55">MERIDIAN INSTRUMENTS — OPERATOR PROFILE</text>
  <g font-family="ui-monospace,Consolas,Menlo,monospace" font-size="10" letter-spacing="2">
    <circle cx="782" cy="28" r="3" fill="#7dd87d"><animate attributeName="opacity" values="1;.25;1" dur="2s" repeatCount="indefinite"/></circle>
    <text x="792" y="32" fill="#7dd87d" fill-opacity=".8">ONLINE</text>
  </g>

  <!-- boot lines -->
  <g font-family="ui-monospace,Consolas,Menlo,monospace">
    <text x="36" y="67" font-size="13" fill="#5f7194" clip-path="url(#type1)">&gt; vsh boot --operator</text>
    <text x="34" y="122" font-size="42" font-weight="bold" letter-spacing="4" fill="#f0a63c" filter="url(#glow)" clip-path="url(#type2)">SAKSHAM GUPTA</text>
    <text x="36" y="163" font-size="15" letter-spacing="2" fill="#9fb0d0" clip-path="url(#type3)">AI DEVELOPER — AGENTS · AUTOMATION · FULL-STACK</text>
    <text x="36" y="197" font-size="13" fill="#5f7194" clip-path="url(#type4)">&gt; systems that run while you sleep</text>
    <rect x="316" y="185" width="9" height="15" fill="#f0a63c" opacity="0">
      <animate attributeName="opacity" values="0;0;1;0;1;0;1;0;1;0;1;0;1;0;1;0" begin="5.2s" dur="8s" repeatCount="indefinite"/>
    </rect>
  </g>

  <!-- hairline sweep -->
  <rect x="36" y="216" width="500" height="1" fill="url(#hairline)" opacity=".0">
    <animate attributeName="opacity" values="0;.9" begin="5s" dur=".8s" fill="freeze"/>
  </rect>

  <!-- scanlines -->
  <g opacity=".05">
    <rect x="2" y="20" width="876" height="1.2" fill="#cfe0ff"/>
    <rect x="2" y="60" width="876" height="1.2" fill="#cfe0ff"/>
    <rect x="2" y="100" width="876" height="1.2" fill="#cfe0ff"/>
    <rect x="2" y="140" width="876" height="1.2" fill="#cfe0ff"/>
    <rect x="2" y="180" width="876" height="1.2" fill="#cfe0ff"/>
    <rect x="2" y="220" width="876" height="1.2" fill="#cfe0ff"/>
  </g>
</svg>
